<svg xmlns="http://www.w3.org/2000/svg" xmlns:xlink="http://www.w3.org/1999/xlink" width="1500" zoomAndPan="magnify" viewBox="0 0 1125 1124.99995" height="1500" preserveAspectRatio="xMidYMid meet" version="1.0"><defs><clipPath id="a4d0696901"><path d="M 1.40625 4 L 46 4 L 46 66 L 1.40625 66 Z M 1.40625 4 " clip-rule="nonzero"/></clipPath><clipPath id="03cc38e839"><path d="M 1.40625 1 L 94 1 L 94 131 L 1.40625 131 Z M 1.40625 1 " clip-rule="nonzero"/></clipPath><clipPath id="110a044133"><path d="M 1.40625 1 L 146 1 L 146 196 L 1.40625 196 Z M 1.40625 1 " clip-rule="nonzero"/></clipPath><clipPath id="0ccdb4eb23"><path d="M 704 1 L 1123.40625 1 L 1123.40625 201 L 704 201 Z M 704 1 " clip-rule="nonzero"/></clipPath><clipPath id="6afee23f72"><path d="M 769 1 L 1123.40625 1 L 1123.40625 140 L 769 140 Z M 769 1 " clip-rule="nonzero"/></clipPath><clipPath id="1bbbeb1a62"><path d="M 819 236 L 1123.40625 236 L 1123.40625 561 L 819 561 Z M 819 236 " clip-rule="nonzero"/></clipPath><clipPath id="30117955c5"><path d="M 870 271 L 1123.40625 271 L 1123.40625 505 L 870 505 Z M 870 271 " clip-rule="nonzero"/></clipPath><clipPath id="c43a67caa9"><path d="M 875 426 L 1123.40625 426 L 1123.40625 887 L 875 887 Z M 875 426 " clip-rule="nonzero"/></clipPath><clipPath id="63e5bca495"><path d="M 944 470 L 1123.40625 470 L 1123.40625 834 L 944 834 Z M 944 470 " clip-rule="nonzero"/></clipPath><clipPath id="1bb0983072"><path d="M 1052 556 L 1123.40625 556 L 1123.40625 805 L 1052 805 Z M 1052 556 " clip-rule="nonzero"/></clipPath><clipPath id="3af299ed4c"><path d="M 1.40625 227 L 198 227 L 198 470 L 1.40625 470 Z M 1.40625 227 " clip-rule="nonzero"/></clipPath><clipPath id="efa1722382"><path d="M 1.40625 279 L 150 279 L 150 419 L 1.40625 419 Z M 1.40625 279 " clip-rule="nonzero"/></clipPath><clipPath id="72ee1af56a"><path d="M 1.40625 509 L 329 509 L 329 922 L 1.40625 922 Z M 1.40625 509 " clip-rule="nonzero"/></clipPath><clipPath id="357626d651"><path d="M 1.40625 569 L 250 569 L 250 867 L 1.40625 867 Z M 1.40625 569 " clip-rule="nonzero"/></clipPath><clipPath id="e90f920d4c"><path d="M 1.40625 620 L 195 620 L 195 800 L 1.40625 800 Z M 1.40625 620 " clip-rule="nonzero"/></clipPath><clipPath id="06b0f9b1bb"><path d="M 1.40625 906 L 343 906 L 343 1125 L 1.40625 1125 Z M 1.40625 906 " clip-rule="nonzero"/></clipPath><clipPath id="78270b565d"><path d="M 1.40625 1040 L 221 1040 L 221 1123 L 1.40625 1123 Z M 1.40625 1040 " clip-rule="nonzero"/></clipPath><clipPath id="64f10a7453"><path d="M 1042 924 L 1123.40625 924 L 1123.40625 1123 L 1042 1123 Z M 1042 924 " clip-rule="nonzero"/></clipPath><clipPath id="c87704bd9b"><path d="M 1096 997 L 1123.40625 997 L 1123.40625 1123 L 1096 1123 Z M 1096 997 " clip-rule="nonzero"/></clipPath></defs><g clip-path="url(#a4d0696901)"><path fill="#ffffff" d="M 2.875 61.4375 C 1.769531 62.003906 1.316406 63.359375 1.882812 64.492188 C 2.289062 65.28125 3.078125 65.734375 3.894531 65.734375 C 4.234375 65.734375 4.59375 65.667969 4.910156 65.484375 C 37.0625 49.183594 49.070312 27.929688 44.277344 15.355469 C 40.070312 4.324219 24.761719 1.113281 3.304688 6.765625 C 2.105469 7.082031 1.382812 8.324219 1.699219 9.523438 C 2.015625 10.722656 3.261719 11.445312 4.457031 11.128906 C 23.15625 6.199219 36.816406 8.4375 40.046875 16.960938 C 44.027344 27.386719 32.339844 46.515625 2.875 61.4375 Z M 2.875 61.4375 " fill-opacity=".05" fill-rule="nonzero"/></g><g clip-path="url(#03cc38e839)"><path fill="#ffffff" d="M 4.210938 125.40625 C 2.988281 125.222656 1.835938 126.082031 1.65625 127.304688 C 1.472656 128.546875 2.332031 129.679688 3.554688 129.859375 C 6.832031 130.335938 9.863281 130.5625 12.6875 130.5625 C 41.835938 130.5625 47.328125 106.1875 52.214844 84.457031 C 55.761719 68.652344 59.132812 53.726562 70.054688 46.605469 C 86.039062 36.203125 91.21875 24.96875 92.753906 17.371094 C 94.449219 8.957031 92.210938 3.058594 92.121094 2.808594 C 91.667969 1.632812 90.359375 1.066406 89.203125 1.519531 C 88.050781 1.972656 87.464844 3.28125 87.917969 4.4375 C 87.984375 4.640625 95.402344 24.71875 67.589844 42.808594 C 55.128906 50.925781 51.398438 67.453125 47.804688 83.4375 C 42.398438 107.542969 37.289062 130.242188 4.210938 125.40625 Z M 4.210938 125.40625 " fill-opacity=".05" fill-rule="nonzero"/></g><g clip-path="url(#110a044133)"><path fill="#ffffff" d="M 92.371094 126.105469 C 97.277344 145.03125 101.914062 162.894531 87.601562 175.398438 C 70.890625 189.984375 56.53125 187.15625 42.648438 184.441406 C 29.671875 181.886719 16.261719 179.265625 2.402344 191.40625 C 1.453125 192.222656 1.359375 193.667969 2.199219 194.59375 C 2.648438 195.117188 3.261719 195.363281 3.894531 195.363281 C 4.414062 195.363281 4.957031 195.183594 5.386719 194.796875 C 17.574219 184.105469 28.789062 186.320312 41.765625 188.851562 C 56.035156 191.65625 72.203125 194.820312 90.5625 178.789062 C 106.976562 164.453125 101.777344 144.375 96.734375 124.953125 C 90.921875 102.546875 85.453125 81.382812 110.84375 67.972656 C 128.796875 58.5 139.921875 46.71875 143.902344 32.925781 C 148.71875 16.308594 141.253906 3.058594 140.9375 2.515625 C 140.328125 1.429688 138.925781 1.066406 137.863281 1.675781 C 136.777344 2.289062 136.417969 3.667969 137.027344 4.753906 C 137.09375 4.867188 143.855469 16.984375 139.539062 31.75 C 135.875 44.277344 125.519531 55.128906 108.71875 63.972656 C 80.183594 79.074219 86.671875 104.058594 92.371094 126.105469 Z M 92.371094 126.105469 " fill-opacity=".05" fill-rule="nonzero"/></g><path fill="#ffffff" d="M 185.121094 282.078125 C 188.964844 302.246094 207.167969 317.101562 231.496094 319.929688 C 234.210938 320.246094 236.902344 320.402344 239.546875 320.402344 C 262.339844 320.402344 281.785156 308.847656 290.375 289.652344 C 299.328125 269.617188 297.835938 247.664062 296.546875 228.261719 C 294.921875 204.136719 293.519531 183.3125 312.039062 172.957031 C 331.980469 161.785156 354.976562 134.066406 358.390625 99.605469 C 360.742188 75.730469 354.34375 39.394531 310.523438 1.972656 C 309.574219 1.15625 308.148438 1.269531 307.335938 2.21875 C 306.519531 3.167969 306.632812 4.59375 307.582031 5.410156 C 341.09375 34.035156 357.101562 66.457031 353.890625 99.175781 C 350.65625 132.03125 328.792969 158.417969 309.84375 169.042969 C 288.839844 180.800781 290.398438 204.023438 292.050781 228.601562 C 293.316406 247.460938 294.761719 268.851562 286.261719 287.84375 C 275.609375 311.652344 250.398438 317.621094 232.039062 315.472656 C 209.722656 312.875 193.058594 299.441406 189.597656 281.261719 C 187.316406 269.28125 181.230469 256.390625 174.8125 242.734375 C 157.582031 206.125 138.046875 164.613281 175.21875 115.386719 C 228.015625 45.476562 190.546875 2.605469 190.164062 2.199219 C 189.328125 1.269531 187.902344 1.203125 186.976562 2.039062 C 186.046875 2.875 185.980469 4.300781 186.816406 5.226562 C 186.90625 5.316406 195.792969 15.402344 198.371094 33.535156 C 201.785156 57.617188 192.539062 84.976562 171.621094 112.675781 C 132.800781 164.09375 153.828125 208.773438 170.71875 244.679688 C 176.980469 258.019531 182.949219 270.660156 185.121094 282.078125 Z M 185.121094 282.078125 " fill-opacity=".05" fill-rule="nonzero"/><path fill="#ffffff" d="M 198.644531 208.660156 C 200.722656 213.160156 202.238281 218.742188 203.84375 224.667969 C 208.523438 241.964844 214.355469 263.492188 239.046875 266.476562 C 240.496094 266.65625 241.898438 266.746094 243.230469 266.746094 C 249.109375 266.746094 253.859375 265.050781 257.410156 261.660156 C 267.152344 252.367188 265.683594 232.628906 264.394531 215.214844 C 264.101562 211.351562 263.832031 207.6875 263.71875 204.339844 C 263.355469 194.890625 270.117188 183.515625 278.664062 169.113281 C 290.917969 148.46875 306.179688 122.804688 310.320312 87.417969 C 312.917969 65.191406 304.890625 44.660156 287.121094 28.066406 C 267.402344 9.683594 240.15625 0.523438 235.136719 1.453125 C 226.792969 3.035156 221.683594 6.175781 219.535156 11.082031 C 215.53125 20.171875 223.109375 32.40625 230.433594 44.230469 C 234.390625 50.628906 238.121094 56.667969 239.5 61.394531 C 244.339844 78.101562 224.035156 118.058594 204.769531 136.867188 C 186.183594 155.003906 188.558594 186.792969 198.644531 208.660156 Z M 243.84375 60.148438 C 242.304688 54.8125 238.394531 48.503906 234.277344 41.855469 C 227.878906 31.523438 220.621094 19.8125 223.671875 12.914062 C 225.164062 9.523438 229.304688 7.171875 235.949219 5.929688 C 239.34375 5.542969 266.996094 14.136719 286.464844 33.738281 C 301.660156 49.046875 308.191406 66.933594 305.839844 86.921875 C 301.816406 121.335938 286.824219 146.570312 274.773438 166.828125 C 265.84375 181.886719 258.765625 193.757812 259.195312 204.542969 C 259.332031 207.980469 259.601562 211.667969 259.894531 215.578125 C 261.050781 231.179688 262.496094 250.601562 254.289062 258.425781 C 250.917969 261.636719 246.125 262.8125 239.589844 262.019531 C 217.929688 259.398438 212.976562 241.152344 208.207031 223.515625 C 206.554688 217.410156 204.996094 211.644531 202.757812 206.804688 C 195.972656 192.109375 188.332031 159.277344 207.9375 140.148438 C 228.242188 120.296875 249.222656 78.667969 243.84375 60.148438 Z M 243.84375 60.148438 " fill-opacity=".05" fill-rule="nonzero"/><path fill="#ffffff" d="M 243.527344 166.105469 C 244.316406 166.285156 245.109375 166.375 245.898438 166.375 C 248.160156 166.375 250.46875 165.652344 252.820312 164.183594 C 265.457031 156.292969 276.96875 127.328125 281.105469 109.304688 C 284.746094 93.386719 284.339844 82.488281 279.882812 76.90625 C 277.625 74.054688 274.433594 72.632812 270.410156 72.632812 C 260.957031 72.632812 259.488281 81.066406 257.816406 90.832031 C 256.1875 100.308594 254.152344 112.085938 245.132812 122.917969 C 233.554688 136.824219 228.875 148.445312 231.585938 156.539062 C 233.191406 161.355469 237.332031 164.65625 243.527344 166.105469 Z M 248.589844 125.789062 C 258.382812 114.054688 260.621094 101.074219 262.246094 91.578125 C 264.101562 80.882812 265.210938 77.128906 270.386719 77.128906 C 272.988281 77.128906 274.933594 77.96875 276.3125 79.707031 C 278.753906 82.761719 280.789062 90.222656 276.652344 108.265625 C 272.0625 128.277344 260.710938 153.871094 250.375 160.316406 C 248.25 161.652344 246.328125 162.082031 244.519531 161.671875 C 239.863281 160.589844 236.945312 158.351562 235.835938 155.046875 C 233.710938 148.648438 238.234375 138.25 248.589844 125.789062 Z M 248.589844 125.789062 " fill-opacity=".05" fill-rule="nonzero"/><path fill="#ffffff" d="M 402.84375 95.761719 C 404.96875 130.921875 425.160156 141.664062 444.671875 152.042969 C 461.316406 160.882812 477.03125 169.226562 483.453125 191.859375 C 488.472656 209.542969 499.484375 220.847656 515.289062 224.578125 C 519.042969 225.460938 523 225.890625 527.113281 225.890625 C 552.753906 225.890625 584.433594 209.203125 609.734375 181.457031 C 632.234375 156.789062 658.054688 156.335938 678.789062 155.953125 C 698.503906 155.589844 715.507812 155.296875 721.839844 134.722656 C 730.546875 106.367188 722.40625 98.023438 710.082031 85.429688 C 704.25 79.480469 697.644531 72.722656 690.976562 62.253906 C 683.628906 50.722656 679.308594 41.5625 675.847656 34.214844 C 669.292969 20.332031 664.949219 11.152344 647.789062 1.675781 C 646.703125 1.066406 645.324219 1.472656 644.714844 2.558594 C 644.101562 3.644531 644.511719 5.023438 645.59375 5.632812 C 661.492188 14.386719 665.132812 22.117188 671.757812 36.136719 C 675.285156 43.597656 679.671875 52.890625 687.15625 64.671875 C 694.074219 75.546875 701.152344 82.785156 706.828125 88.59375 C 718.832031 100.851562 725.433594 107.609375 717.5 133.386719 C 712.140625 150.820312 698.121094 151.070312 678.699219 151.429688 C 657.082031 151.816406 630.199219 152.3125 606.367188 178.40625 C 578.078125 209.40625 541.878906 226.183594 516.28125 220.167969 C 502.171875 216.84375 492.316406 206.625 487.769531 190.617188 C 480.804688 166.128906 463.484375 156.925781 446.753906 148.039062 C 427.488281 137.796875 409.265625 128.117188 407.320312 95.492188 C 403.542969 32.859375 380.480469 3.488281 379.507812 2.265625 C 378.71875 1.292969 377.316406 1.136719 376.34375 1.925781 C 375.371094 2.71875 375.210938 4.121094 375.980469 5.113281 C 376.253906 5.363281 399.179688 34.691406 402.84375 95.761719 Z M 402.84375 95.761719 " fill-opacity=".05" fill-rule="nonzero"/><path fill="#ffffff" d="M 439.113281 45.023438 C 438.683594 58.160156 438.296875 70.550781 447.320312 79.347656 C 453.628906 85.472656 461.246094 89.25 468.617188 92.914062 C 481.890625 99.492188 494.441406 105.710938 497.039062 125.132812 C 499.957031 146.910156 510.109375 164.003906 522.90625 168.707031 C 524.898438 169.429688 527.292969 169.996094 529.984375 169.996094 C 534.824219 169.996094 540.65625 168.230469 546.945312 162.578125 C 567.789062 143.855469 589.949219 136.507812 625.992188 136.328125 C 639.492188 136.257812 647.902344 133.5 652.492188 127.621094 C 660.902344 116.859375 655.929688 96.417969 648.421875 65.484375 C 636.484375 16.375 592.257812 1.675781 591.804688 1.542969 C 590.605469 1.15625 589.339844 1.8125 588.953125 3.011719 C 588.570312 4.210938 589.226562 5.476562 590.425781 5.859375 C 590.855469 5.996094 632.707031 19.992188 644.011719 66.570312 C 650.953125 95.152344 655.972656 115.816406 648.917969 124.863281 C 645.257812 129.566406 637.953125 131.78125 625.945312 131.847656 C 589.160156 132.03125 565.394531 139.988281 543.914062 159.277344 C 537.402344 165.109375 530.84375 166.875 524.445312 164.523438 C 513.390625 160.453125 504.164062 144.398438 501.519531 124.589844 C 498.578125 102.792969 484.378906 95.738281 470.609375 88.933594 C 463.554688 85.429688 456.25 81.8125 450.460938 76.179688 C 442.863281 68.789062 443.203125 57.867188 443.609375 45.25 C 444.0625 31.277344 444.5625 15.425781 433.164062 2.265625 C 432.351562 1.316406 430.925781 1.226562 429.976562 2.039062 C 429.027344 2.851562 428.9375 4.277344 429.75 5.226562 C 440.015625 16.960938 439.5625 31.230469 439.113281 45.023438 Z M 439.113281 45.023438 " fill-opacity=".05" fill-rule="nonzero"/><path fill="#ffffff" d="M 501.496094 72.742188 C 512.4375 83.371094 547.734375 115.546875 573.828125 115.546875 C 576.269531 115.546875 578.621094 115.277344 580.882812 114.664062 C 589.699219 112.289062 595.785156 105.304688 598.996094 93.886719 C 602.929688 79.867188 600.058594 64.964844 590.71875 50.742188 C 574.527344 26.164062 539.980469 5.882812 506.695312 1.429688 C 505.476562 1.269531 504.320312 2.128906 504.164062 3.375 C 504.003906 4.617188 504.863281 5.746094 506.109375 5.90625 C 538.191406 10.203125 571.429688 29.648438 586.941406 53.207031 C 595.558594 66.300781 598.226562 79.933594 594.652344 92.640625 C 591.917969 102.410156 586.875 108.355469 579.730469 110.277344 C 560.644531 115.410156 528.449219 92.574219 504.683594 69.488281 C 472.710938 38.421875 467.238281 3.667969 467.195312 3.328125 C 467.011719 2.085938 465.859375 1.226562 464.640625 1.429688 C 463.394531 1.609375 462.558594 2.761719 462.738281 3.984375 C 462.898438 5.476562 468.371094 40.570312 501.496094 72.742188 Z M 501.496094 72.742188 " fill-opacity=".05" fill-rule="nonzero"/><path fill="#ffffff" d="M 545.789062 77.152344 C 547.054688 77.242188 548.230469 77.289062 549.316406 77.289062 C 554.632812 77.289062 557.75 76.226562 559.265625 73.988281 C 561.371094 70.890625 559.539062 67.089844 557.75 63.429688 C 556.847656 61.574219 555.921875 59.628906 555.714844 58.183594 C 554.992188 52.777344 549.726562 46.785156 544.910156 43.667969 C 542.21875 41.925781 538.214844 40.070312 534.460938 41.179688 C 528.109375 43.054688 524.421875 49.769531 525.328125 57.886719 C 526.300781 66.84375 533.015625 76.292969 545.789062 77.152344 Z M 535.75 45.519531 C 536.089844 45.429688 536.453125 45.382812 536.835938 45.382812 C 538.375 45.382812 540.339844 46.109375 542.445312 47.464844 C 546.898438 50.359375 550.765625 55.332031 551.21875 58.792969 C 551.511719 60.964844 552.597656 63.226562 553.660156 65.417969 C 554.699219 67.566406 556.144531 70.527344 555.492188 71.476562 C 555.285156 71.773438 553.90625 73.195312 546.0625 72.652344 C 535.910156 71.953125 530.574219 64.492188 529.78125 57.390625 C 529.285156 52.507812 530.890625 46.945312 535.75 45.519531 Z M 535.75 45.519531 " fill-opacity=".05" fill-rule="nonzero"/><g clip-path="url(#0ccdb4eb23)"><path fill="#ffffff" d="M 756.117188 91.648438 C 795.890625 150.253906 830.488281 181.1875 858.929688 183.582031 C 884.84375 185.777344 903.882812 184.105469 920.703125 182.632812 C 947.296875 180.304688 968.277344 178.449219 1002.828125 193.304688 C 1013.953125 198.078125 1025.214844 200.023438 1036.132812 200.023438 C 1081.832031 200.023438 1121.851562 166.261719 1122.351562 165.855469 C 1123.300781 165.042969 1123.414062 163.617188 1122.597656 162.667969 C 1121.785156 161.71875 1120.359375 161.605469 1119.410156 162.417969 C 1119.253906 162.554688 1104.285156 175.261719 1082.644531 184.851562 C 1062.859375 193.621094 1033.261719 201.46875 1004.613281 189.167969 C 969.023438 173.882812 947.519531 175.761719 920.296875 178.15625 C 903.679688 179.625 884.84375 181.277344 859.316406 179.105469 C 794.46875 173.632812 709.878906 4.390625 709.019531 2.695312 C 708.476562 1.566406 707.121094 1.113281 705.988281 1.675781 C 704.859375 2.242188 704.40625 3.597656 704.972656 4.707031 C 705.199219 5.09375 726.703125 48.324219 756.117188 91.648438 Z M 756.117188 91.648438 " fill-opacity=".05" fill-rule="nonzero"/></g><g clip-path="url(#6afee23f72)"><path fill="#ffffff" d="M 882.445312 91.738281 C 906.4375 94.15625 916.386719 100.214844 928.980469 107.882812 C 942.929688 116.359375 960.273438 126.921875 1002.761719 136.257812 C 1013.953125 138.722656 1024.308594 139.785156 1033.894531 139.785156 C 1093.746094 139.785156 1122.417969 98.316406 1122.757812 97.820312 C 1123.457031 96.78125 1123.1875 95.378906 1122.148438 94.675781 C 1121.105469 93.976562 1119.703125 94.246094 1119.003906 95.289062 C 1118.914062 95.421875 1109.800781 108.808594 1091.101562 120 C 1073.804688 130.355469 1044.613281 140.824219 1003.730469 131.828125 C 961.992188 122.648438 944.988281 112.3125 931.332031 103.992188 C 918.238281 96.035156 907.90625 89.746094 882.898438 87.214844 C 835.574219 82.445312 786.777344 44.660156 774.160156 2.988281 C 773.800781 1.789062 772.535156 1.113281 771.335938 1.472656 C 770.136719 1.835938 769.460938 3.101562 769.820312 4.300781 C 783.183594 48.324219 832.632812 86.71875 882.445312 91.738281 Z M 882.445312 91.738281 " fill-opacity=".05" fill-rule="nonzero"/></g><path fill="#ffffff" d="M 891.175781 44.863281 C 919.234375 67.183594 960.070312 79.277344 988.855469 79.277344 C 996.382812 79.277344 1003.078125 78.441406 1008.503906 76.769531 C 1015.761719 74.507812 1020.398438 70.664062 1021.933594 65.667969 C 1023.902344 59.222656 1022.679688 52.03125 1018.453125 44.886719 C 1007.148438 25.847656 976.800781 9.207031 939.222656 1.453125 C 938.003906 1.203125 936.804688 1.992188 936.554688 3.214844 C 936.304688 4.4375 937.097656 5.632812 938.320312 5.882812 C 974.132812 13.277344 1004.070312 29.488281 1014.5625 47.195312 C 1018.179688 53.296875 1019.222656 59.0625 1017.617188 64.355469 C 1016.257812 68.789062 1011.195312 71.207031 1007.167969 72.449219 C 977.230469 81.765625 921.746094 63.382812 894.023438 41.335938 C 868.652344 21.167969 867.589844 12.484375 868.316406 9.683594 C 869.105469 6.585938 873.152344 5.859375 873.199219 5.859375 C 874.417969 5.65625 875.257812 4.503906 875.074219 3.28125 C 874.871094 2.039062 873.71875 1.203125 872.496094 1.40625 C 872.203125 1.453125 865.535156 2.558594 863.949219 8.507812 C 861.734375 16.667969 870.667969 28.585938 891.175781 44.863281 Z M 891.175781 44.863281 " fill-opacity=".05" fill-rule="nonzero"/><g clip-path="url(#1bbbeb1a62)"><path fill="#ffffff" d="M 1122.894531 237.78125 C 1122.328125 236.675781 1120.972656 236.222656 1119.863281 236.789062 C 1119.296875 237.058594 1062.613281 265.074219 983.269531 255.394531 C 941.191406 250.261719 907.386719 257.769531 885.542969 277.101562 C 866.777344 293.699219 856.875 319.070312 856.875 350.40625 C 856.875 380.390625 845.230469 399.023438 834.964844 415.484375 C 822.957031 434.703125 812.578125 451.296875 824.585938 478.953125 C 839.800781 514.023438 877.496094 547.871094 912.246094 557.707031 C 919.007812 559.628906 925.476562 560.578125 931.582031 560.578125 C 941.914062 560.578125 951.160156 557.84375 958.894531 552.4375 C 979.109375 538.304688 983.222656 511.785156 987.203125 486.121094 C 991.09375 460.953125 995.140625 434.929688 1014.472656 421.519531 C 1052.980469 394.792969 1073.691406 388.03125 1120.316406 400.761719 C 1121.535156 401.101562 1122.757812 400.378906 1123.097656 399.179688 C 1123.433594 397.980469 1122.710938 396.738281 1121.511719 396.398438 C 1079.773438 385.027344 1056.9375 386.539062 1011.894531 417.8125 C 990.957031 432.351562 986.773438 459.324219 982.726562 485.441406 C 978.722656 511.308594 974.949219 535.726562 956.292969 548.753906 C 945.125 556.554688 930.335938 558.160156 913.46875 553.386719 C 879.890625 543.890625 843.464844 511.128906 828.722656 477.1875 C 817.664062 451.726562 827.003906 436.804688 838.808594 417.925781 C 849.410156 400.964844 861.417969 381.746094 861.417969 350.453125 C 861.417969 320.425781 870.800781 296.253906 888.574219 280.515625 C 909.421875 262.066406 941.980469 254.921875 982.75 259.894531 C 1063.492188 269.753906 1121.355469 241.128906 1121.921875 240.835938 C 1123.003906 240.246094 1123.457031 238.890625 1122.894531 237.78125 Z M 1122.894531 237.78125 " fill-opacity=".05" fill-rule="nonzero"/></g><g clip-path="url(#30117955c5)"><path fill="#ffffff" d="M 1058.925781 286.734375 C 1068.714844 286.304688 1079.074219 283.75 1089.113281 281.261719 C 1100.960938 278.347656 1112.152344 275.566406 1120.5625 276.808594 C 1121.785156 276.96875 1122.9375 276.128906 1123.117188 274.886719 C 1123.300781 273.644531 1122.441406 272.511719 1121.195312 272.332031 C 1111.902344 270.976562 1100.304688 273.847656 1088.027344 276.875 C 1078.214844 279.296875 1068.0625 281.804688 1058.722656 282.214844 C 1056.03125 282.324219 1052.957031 282.417969 1049.496094 282.53125 C 1025.324219 283.230469 984.898438 284.382812 945.621094 299.328125 C 920.183594 309.007812 919.121094 330.804688 917.992188 353.867188 C 917.0625 372.816406 916.09375 392.398438 901.347656 406.730469 C 879.460938 428.007812 868.179688 452.339844 871.140625 471.808594 C 873.019531 484.175781 880.570312 494.035156 892.960938 500.320312 C 898.25 503.011719 903.542969 504.34375 908.765625 504.34375 C 912.859375 504.34375 916.929688 503.507812 920.929688 501.855469 C 945.554688 491.660156 963.011719 451.910156 973.34375 420.34375 C 988.878906 372.792969 1013.140625 356.308594 1057.050781 363.476562 C 1097.953125 370.148438 1121.175781 354.816406 1122.148438 354.160156 C 1123.1875 353.460938 1123.457031 352.058594 1122.757812 351.019531 C 1122.054688 349.976562 1120.652344 349.707031 1119.613281 350.40625 C 1119.386719 350.566406 1096.800781 365.355469 1057.773438 359 C 1011.757812 351.515625 985.238281 369.425781 969.046875 418.917969 C 954.667969 462.875 937.4375 490.097656 919.210938 497.652344 C 911.367188 500.90625 903.226562 500.433594 894.996094 496.25 C 883.804688 490.574219 877.269531 482.117188 875.59375 471.082031 C 872.859375 453.039062 883.644531 430.179688 904.492188 409.921875 C 920.523438 394.339844 921.542969 373.855469 922.511719 354.027344 C 923.621094 331.527344 924.570312 312.105469 947.226562 303.488281 C 985.777344 288.816406 1025.734375 287.683594 1049.609375 286.984375 C 1053.113281 286.960938 1056.210938 286.871094 1058.925781 286.734375 Z M 1058.925781 286.734375 " fill-opacity=".05" fill-rule="nonzero"/></g><path fill="#ffffff" d="M 974.722656 333.585938 C 973.433594 337.136719 973.207031 342.5625 979.605469 348.328125 C 984.398438 352.648438 990.707031 354.886719 997.605469 354.886719 C 1001.378906 354.886719 1005.335938 354.207031 1009.292969 352.851562 C 1018.25 349.753906 1024.691406 343.964844 1025.734375 338.085938 C 1026.480469 333.789062 1025.371094 329.785156 1022.5 326.484375 C 1017.839844 321.125 1009.046875 318.164062 998.9375 318.480469 C 991.226562 318.753906 977.957031 324.746094 974.722656 333.585938 Z M 1019.085938 329.46875 C 1021.050781 331.730469 1021.796875 334.375 1021.277344 337.316406 C 1020.554688 341.453125 1015.039062 346.089844 1007.824219 348.578125 C 998.214844 351.898438 988.785156 350.542969 982.636719 344.980469 C 978.972656 341.65625 977.773438 338.445312 978.972656 335.144531 C 981.394531 328.519531 992.855469 323.230469 999.097656 323.003906 C 1007.710938 322.730469 1015.378906 325.195312 1019.085938 329.46875 Z M 1019.085938 329.46875 " fill-opacity=".05" fill-rule="nonzero"/><g clip-path="url(#c43a67caa9)"><path fill="#ffffff" d="M 1120.609375 886.289062 C 1120.699219 886.289062 1120.789062 886.3125 1120.878906 886.3125 C 1122.011719 886.3125 1122.984375 885.453125 1123.117188 884.324219 C 1123.253906 883.078125 1122.371094 881.972656 1121.128906 881.8125 C 1120.542969 881.746094 1061.730469 874.285156 1045.902344 825.421875 C 1037.988281 801 1015.851562 795.574219 990.210938 789.3125 C 959.277344 781.738281 924.210938 773.167969 897.300781 731.179688 C 882.535156 708.136719 877.5625 690.636719 882.039062 677.636719 C 888.734375 658.324219 915.300781 649.101562 948.945312 637.433594 C 961.292969 633.136719 974.066406 628.707031 987.160156 623.324219 C 1039.773438 601.664062 1035.046875 570.300781 1029.554688 533.988281 C 1027.226562 518.589844 1024.804688 502.648438 1025.960938 485.261719 C 1029.734375 427.894531 1119.886719 431.289062 1120.789062 431.332031 C 1122.054688 431.378906 1123.097656 430.429688 1123.140625 429.183594 C 1123.1875 427.941406 1122.238281 426.878906 1120.992188 426.832031 C 1120.042969 426.789062 1025.507812 423.214844 1021.460938 484.988281 C 1020.285156 502.875 1022.839844 519.765625 1025.101562 534.6875 C 1030.730469 571.929688 1034.800781 598.835938 985.460938 619.164062 C 972.507812 624.5 959.800781 628.910156 947.5 633.183594 C 912.699219 645.257812 885.207031 654.796875 877.8125 676.164062 C 872.769531 690.75 877.742188 708.996094 893.527344 733.621094 C 921.40625 777.125 958.960938 786.304688 989.171875 793.699219 C 1014.496094 799.894531 1034.507812 804.800781 1041.652344 826.824219 C 1058.339844 878.445312 1120 886.199219 1120.609375 886.289062 Z M 1120.609375 886.289062 " fill-opacity=".05" fill-rule="nonzero"/></g><g clip-path="url(#63e5bca495)"><path fill="#ffffff" d="M 1049.269531 633.835938 C 1039.84375 638.96875 1027.859375 644.058594 1015.171875 649.441406 C 981.914062 663.546875 947.519531 678.15625 944.492188 698.820312 C 943.132812 708.113281 948.175781 717.363281 959.890625 727.0625 C 983.699219 746.757812 1004.816406 752.410156 1021.777344 756.933594 C 1041.832031 762.292969 1056.324219 766.15625 1064.21875 790.53125 C 1076.832031 829.558594 1106.453125 833.246094 1117.21875 833.246094 C 1119.660156 833.246094 1121.128906 833.0625 1121.21875 833.042969 C 1122.464844 832.859375 1123.300781 831.730469 1123.140625 830.484375 C 1122.960938 829.242188 1121.828125 828.40625 1120.585938 828.5625 C 1119.046875 828.769531 1082.824219 833.3125 1068.535156 789.128906 C 1059.898438 762.402344 1043.59375 758.0625 1022.972656 752.546875 C 1006.445312 748.136719 985.847656 742.621094 962.804688 723.558594 C 952.539062 715.078125 947.90625 706.960938 948.992188 699.453125 C 951.636719 681.296875 986.34375 666.578125 1016.960938 653.578125 C 1029.757812 648.152344 1041.832031 643.019531 1051.464844 637.792969 C 1095.195312 614.03125 1086.511719 572.042969 1077.308594 527.566406 L 1076.609375 524.195312 C 1074.257812 512.824219 1075.976562 503.054688 1081.71875 495.097656 C 1094.019531 478.023438 1120.902344 474.65625 1121.175781 474.609375 C 1122.417969 474.453125 1123.300781 473.34375 1123.164062 472.101562 C 1123.027344 470.855469 1121.898438 469.976562 1120.652344 470.109375 C 1119.480469 470.246094 1091.554688 473.730469 1078.078125 492.40625 C 1071.566406 501.425781 1069.597656 512.417969 1072.199219 525.078125 L 1072.898438 528.449219 C 1082.078125 573.128906 1090.0625 611.679688 1049.269531 633.835938 Z M 1049.269531 633.835938 " fill-opacity=".05" fill-rule="nonzero"/></g><g clip-path="url(#1bb0983072)"><path fill="#ffffff" d="M 1082.464844 673.699219 C 1096.347656 661.355469 1110.707031 648.601562 1111.472656 625.539062 C 1112.851562 584.117188 1122.871094 559.425781 1122.960938 559.175781 C 1123.433594 558.023438 1122.894531 556.710938 1121.738281 556.214844 C 1120.585938 555.738281 1119.273438 556.28125 1118.777344 557.433594 C 1118.347656 558.453125 1108.355469 583.054688 1106.953125 625.359375 C 1106.25 646.476562 1093.226562 658.03125 1079.457031 670.285156 C 1066.929688 681.410156 1053.972656 692.941406 1052.324219 711.890625 C 1050.199219 736.109375 1064.511719 746.417969 1078.371094 756.390625 C 1086.984375 762.609375 1095.148438 768.488281 1099.152344 777.53125 C 1110.183594 802.492188 1119.613281 804.191406 1120.652344 804.300781 C 1120.746094 804.300781 1120.8125 804.324219 1120.902344 804.324219 C 1122.011719 804.324219 1122.9375 803.511719 1123.097656 802.378906 C 1123.277344 801.183594 1122.417969 800.050781 1121.21875 799.824219 C 1121.128906 799.804688 1113.214844 798.105469 1103.289062 775.722656 C 1098.789062 765.546875 1089.765625 759.035156 1081.015625 752.75 C 1067.609375 743.09375 1054.945312 733.960938 1056.84375 712.296875 C 1058.339844 695.160156 1070.074219 684.734375 1082.464844 673.699219 Z M 1082.464844 673.699219 " fill-opacity=".05" fill-rule="nonzero"/></g><path fill="#ffffff" d="M 965.882812 820.558594 C 928.167969 815.269531 896.308594 801.410156 873.742188 780.425781 C 847.355469 755.890625 833.539062 722.15625 832.65625 680.144531 C 832.5 672.707031 833.335938 662.621094 834.285156 650.953125 C 836.976562 617.785156 840.683594 572.382812 823.273438 551.035156 C 809.34375 533.988281 787.617188 514.203125 763.171875 516.847656 C 743.433594 518.996094 725.59375 535.546875 710.171875 566.050781 C 682 621.742188 687.019531 685.007812 691.066406 735.859375 C 692.875 758.582031 694.570312 780.042969 692.988281 797.179688 C 690.320312 825.875 700.585938 849.773438 710.535156 872.859375 C 720.191406 895.289062 730.160156 918.464844 728.78125 946.570312 C 727.222656 978.589844 793.992188 1023.5625 866.167969 1039.097656 C 882.808594 1042.667969 898.34375 1044.433594 912.585938 1044.433594 C 958.148438 1044.433594 990.503906 1026.386719 1003.957031 992.246094 C 1032.019531 921.042969 1037.671875 877.539062 1022.273438 851.128906 C 1012.550781 834.511719 994.121094 824.515625 965.882812 820.558594 Z M 999.730469 990.59375 C 991.792969 1010.71875 962.988281 1055.308594 867.09375 1034.6875 C 798.128906 1019.832031 731.835938 976.304688 733.28125 946.796875 C 734.707031 917.652344 724.507812 893.976562 714.671875 871.074219 C 704.519531 847.445312 694.910156 825.128906 697.488281 797.585938 C 699.117188 780.085938 697.398438 758.425781 695.589844 735.496094 C 691.585938 685.210938 686.613281 622.644531 714.21875 568.085938 C 728.917969 539.03125 745.558594 523.316406 763.671875 521.347656 C 765.003906 521.210938 766.316406 521.144531 767.648438 521.144531 C 788.519531 521.144531 807.355469 538.667969 819.792969 553.90625 C 836.046875 573.828125 832.429688 618.214844 829.808594 650.59375 C 828.835938 662.394531 828.023438 672.59375 828.179688 680.257812 C 829.832031 760.300781 879.800781 813.074219 965.292969 825.058594 C 992.066406 828.8125 1009.429688 838.082031 1018.382812 853.4375 C 1032.96875 878.488281 1027.226562 920.792969 999.730469 990.59375 Z M 999.730469 990.59375 " fill-opacity=".05" fill-rule="nonzero"/><path fill="#ffffff" d="M 877.8125 834.894531 C 862.707031 827.886719 849.660156 821.847656 842.695312 815.902344 C 814.410156 791.867188 788.339844 694.433594 801.523438 635.375 C 807.445312 608.828125 806.113281 590.039062 797.566406 579.503906 C 789.898438 570.03125 778.074219 568.945312 768.667969 569.035156 C 725.503906 569.507812 718.269531 641.546875 713.472656 689.210938 L 712.75 696.359375 C 708.046875 741.941406 716.121094 823.476562 738.980469 842.449219 C 750.285156 851.832031 756.074219 872.023438 762.199219 893.414062 C 767.628906 912.382812 773.257812 932.011719 783.320312 946.097656 C 798.988281 968.03125 836.773438 981.03125 864.492188 981.03125 C 864.652344 981.03125 864.808594 981.03125 864.96875 981.03125 C 887.804688 980.917969 920.183594 973.34375 944.785156 938.070312 C 955.300781 923.011719 958.828125 908.71875 955.277344 895.605469 C 947.679688 867.296875 908.945312 849.320312 877.8125 834.894531 Z M 941.121094 935.492188 C 917.605469 969.183594 886.742188 976.394531 864.96875 976.507812 C 831.097656 976.78125 798.742188 959.867188 787.027344 943.472656 C 777.417969 929.996094 771.902344 910.777344 766.566406 892.167969 C 760.234375 870.101562 754.265625 849.253906 741.875 838.964844 C 732.308594 831.027344 724.507812 809.59375 719.871094 778.546875 C 715.847656 751.507812 714.832031 720.167969 717.226562 696.808594 L 717.949219 689.664062 C 722.585938 643.605469 729.574219 573.988281 768.691406 573.558594 C 777.621094 573.464844 787.617188 574.4375 794.015625 582.351562 C 801.632812 591.757812 802.675781 609.28125 797.066406 634.402344 C 783.230469 696.402344 810.226562 794.285156 839.734375 819.363281 C 847.171875 825.691406 860.492188 831.867188 875.890625 839.011719 C 906.164062 853.050781 943.835938 870.53125 950.933594 896.804688 C 954.167969 908.742188 950.957031 921.382812 941.121094 935.492188 Z M 941.121094 935.492188 " fill-opacity=".05" fill-rule="nonzero"/><path fill="#ffffff" d="M 857.957031 857.824219 C 845.207031 853.234375 832 848.460938 822.730469 842.5625 C 810.226562 834.601562 795.867188 814.09375 784.316406 787.707031 C 773.640625 763.308594 769.664062 743.5 772.082031 739.136719 C 775.8125 732.445312 779.613281 719.917969 781.285156 708.703125 C 782.84375 698.347656 783.34375 684.710938 776.832031 678.5625 C 772.332031 674.3125 766.679688 673.023438 760.933594 674.945312 C 752.660156 677.703125 746.148438 686.429688 744.316406 697.148438 C 734.410156 755.238281 745.175781 777.125 761.476562 810.25 C 769.796875 827.164062 779.203125 846.3125 788.679688 874.847656 C 800.121094 909.398438 816.738281 928.574219 838.0625 931.875 C 840.1875 932.214844 842.3125 932.371094 844.4375 932.371094 C 865.464844 932.371094 886.109375 916.996094 898.140625 900.421875 C 902.253906 894.746094 903.566406 889.367188 902.050781 884.414062 C 898.386719 872.382812 878.738281 865.308594 857.957031 857.824219 Z M 894.519531 897.777344 C 882.085938 914.914062 860.039062 930.699219 838.785156 927.417969 C 819.542969 924.433594 803.714844 905.757812 792.996094 873.425781 C 783.433594 844.59375 773.527344 824.449219 765.570312 808.257812 C 749.109375 774.773438 739.160156 754.535156 748.816406 697.917969 C 750.351562 688.964844 755.800781 681.457031 762.40625 679.242188 C 763.46875 678.878906 764.734375 678.609375 766.113281 678.609375 C 768.464844 678.609375 771.132812 679.398438 773.753906 681.863281 C 782.4375 690.050781 775.226562 724.257812 768.148438 736.945312 C 763.917969 744.542969 771.402344 769.527344 780.175781 789.539062 C 785.898438 802.585938 801.25 834.261719 820.3125 846.40625 C 829.988281 852.578125 843.441406 857.417969 856.421875 862.097656 C 875.257812 868.878906 894.722656 875.910156 897.777344 885.769531 C 898.863281 889.320312 897.800781 893.253906 894.519531 897.777344 Z M 894.519531 897.777344 " fill-opacity=".05" fill-rule="nonzero"/><path fill="#ffffff" d="M 596.507812 820.605469 C 606.207031 807.921875 617.195312 793.5625 624.65625 775.902344 C 636.777344 747.210938 627.03125 715.667969 618.441406 687.808594 C 617.582031 685.007812 616.722656 682.25 615.90625 679.535156 C 612.539062 668.296875 614.730469 652.46875 617.058594 635.714844 C 620.65625 609.78125 624.386719 582.941406 607.429688 569.507812 C 578.734375 546.785156 459.191406 496.5 424.414062 528.742188 C 400.535156 550.878906 397.121094 590.222656 392.78125 640.011719 C 390.792969 662.847656 388.554688 688.738281 383.941406 715.621094 C 379.464844 741.828125 369.425781 766.769531 359.746094 790.894531 C 337.792969 845.5 317.078125 897.097656 354.570312 962.375 C 406.304688 1052.4375 452.792969 1104.691406 550.109375 1122.847656 C 555.828125 1123.910156 561.371094 1124.453125 566.707031 1124.453125 C 592.144531 1124.453125 612.765625 1112.421875 625.8125 1089.5625 C 651.292969 1044.929688 640.011719 974.226562 600.125 928.597656 C 554.132812 875.980469 571.90625 852.757812 596.507812 820.605469 Z M 621.898438 1087.347656 C 607.15625 1113.167969 581.96875 1124.226562 550.945312 1118.414062 C 455.347656 1100.554688 409.558594 1049.023438 358.480469 960.136719 C 322.078125 896.757812 342.402344 846.15625 363.929688 792.589844 C 373.71875 768.238281 383.828125 743.070312 388.394531 716.390625 C 393.03125 689.300781 395.292969 663.324219 397.28125 640.417969 C 401.53125 591.601562 404.878906 553.027344 427.464844 532.066406 C 434.746094 525.328125 446.144531 522.546875 459.777344 522.546875 C 508.324219 522.546875 585.132812 557.636719 604.601562 573.058594 C 619.546875 584.886719 615.996094 610.414062 612.5625 635.105469 C 610.164062 652.355469 607.902344 668.679688 611.566406 680.847656 C 612.378906 683.582031 613.238281 686.339844 614.097656 689.144531 C 622.464844 716.253906 631.960938 746.960938 620.476562 774.140625 C 613.238281 791.257812 602.90625 804.777344 592.890625 817.847656 C 568.945312 849.140625 548.253906 876.160156 596.710938 931.601562 C 639.921875 981.007812 643.449219 1049.585938 621.898438 1087.347656 Z M 621.898438 1087.347656 " fill-opacity=".05" fill-rule="nonzero"/><path fill="#ffffff" d="M 533.648438 929.023438 C 514.269531 894.25 544.320312 829.039062 572.652344 776.105469 C 593.386719 737.398438 590.628906 700.3125 564.21875 662.78125 C 555.039062 649.734375 549.5 634.832031 544.613281 621.695312 C 536.15625 598.972656 528.878906 579.34375 506.71875 577.875 C 488.515625 576.65625 469.273438 584.027344 455.253906 597.546875 C 442.933594 609.464844 436.421875 624.476562 436.917969 639.851562 C 438.046875 675.011719 431.0625 749.789062 413.0625 773.664062 C 406.867188 781.871094 402.4375 804.710938 401.757812 831.820312 C 400.964844 863.949219 405.332031 897.1875 414.035156 925.453125 C 429.5 975.558594 458.015625 1008.933594 496.476562 1021.957031 C 513.433594 1027.699219 527.113281 1030.570312 537.671875 1030.570312 C 547.914062 1030.570312 555.21875 1027.859375 559.71875 1022.453125 C 575.367188 1003.640625 550.402344 959.03125 535.503906 932.394531 Z M 556.28125 1019.558594 C 548.59375 1028.808594 528.96875 1028.175781 497.96875 1017.683594 C 472.144531 1008.933594 437.394531 985.621094 418.398438 924.117188 C 399.113281 861.621094 405.761719 790.917969 416.703125 776.402344 C 436.21875 750.464844 442.546875 673.339844 441.464844 639.714844 C 441.011719 625.628906 447.023438 611.816406 458.421875 600.804688 C 470.609375 589.046875 486.957031 582.261719 502.808594 582.261719 C 504.027344 582.261719 505.226562 582.308594 506.445312 582.375 C 525.667969 583.664062 532.179688 601.140625 540.410156 623.253906 C 545.382812 636.664062 551.035156 651.859375 560.554688 665.378906 C 585.878906 701.378906 588.523438 736.898438 568.695312 773.957031 C 539.820312 827.886719 509.296875 894.519531 529.738281 931.21875 L 531.613281 934.585938 C 544.050781 956.835938 569.9375 1003.144531 556.28125 1019.558594 Z M 556.28125 1019.558594 " fill-opacity=".05" fill-rule="nonzero"/><path fill="#ffffff" d="M 488.902344 680.800781 C 479.449219 684.28125 467.21875 696.0625 462.671875 732.285156 C 460.367188 750.691406 455.300781 770.316406 450.417969 789.3125 C 440.582031 827.480469 432.101562 860.445312 451.820312 866.210938 C 453.378906 866.664062 454.960938 866.890625 456.566406 866.890625 C 460.886719 866.890625 465.429688 865.261719 470.089844 862.050781 C 489.78125 848.484375 515.332031 799.667969 518.769531 757.066406 L 519.199219 751.890625 C 521.621094 722.335938 523.722656 696.808594 511.421875 685.617188 C 505 679.761719 496.589844 677.976562 488.902344 680.800781 Z M 514.699219 751.527344 L 514.269531 756.707031 C 510.992188 797.429688 486.03125 845.613281 467.535156 858.34375 C 462.289062 861.960938 457.425781 863.160156 453.085938 861.894531 C 437.574219 857.371094 445.554688 826.371094 454.804688 790.464844 C 459.734375 771.335938 464.820312 751.550781 467.171875 732.875 C 471.671875 697.105469 483.699219 687.5625 490.484375 685.050781 C 492.359375 684.351562 494.28125 684.011719 496.203125 684.011719 C 500.523438 684.011719 504.820312 685.707031 508.390625 688.941406 C 519.042969 698.640625 517.027344 723.152344 514.699219 751.527344 Z M 514.699219 751.527344 " fill-opacity=".05" fill-rule="nonzero"/><g clip-path="url(#3af299ed4c)"><path fill="#ffffff" d="M 3.984375 232.175781 C 5.589844 232.128906 43.460938 231.113281 56.507812 265.277344 C 69.035156 298.0625 85.949219 304.53125 123.007812 318.707031 C 127.914062 320.585938 133.160156 322.597656 138.8125 324.8125 C 168.296875 336.433594 188.875 356.445312 192.46875 377.066406 C 195.070312 391.875 188.738281 406.484375 174.15625 419.328125 C 170.21875 422.785156 166.46875 426.132812 162.894531 429.320312 C 127.035156 461.316406 110.414062 474.722656 92.730469 456.972656 C 69.804688 433.980469 52.347656 420.910156 3.328125 433.1875 C 2.105469 433.480469 1.382812 434.726562 1.675781 435.921875 C 1.972656 437.144531 3.214844 437.867188 4.414062 437.574219 C 52.054688 425.65625 67.792969 438.386719 89.523438 460.183594 C 95.964844 466.652344 102.363281 469.5 109.058594 469.5 C 124.636719 469.5 141.957031 454.058594 165.902344 432.691406 C 169.472656 429.5 173.226562 426.15625 177.140625 422.695312 C 192.945312 408.765625 199.796875 392.714844 196.902344 376.253906 C 193.011719 354.09375 171.375 332.75 140.441406 320.5625 C 134.765625 318.324219 129.496094 316.3125 124.589844 314.433594 C 88.820312 300.753906 72.496094 294.511719 60.691406 263.605469 C 46.46875 226.386719 4.1875 227.585938 3.78125 227.585938 C 2.535156 227.628906 1.566406 228.691406 1.609375 229.9375 C 1.65625 231.179688 2.742188 232.175781 3.984375 232.175781 Z M 3.984375 232.175781 " fill-opacity=".05" fill-rule="nonzero"/></g><g clip-path="url(#efa1722382)"><path fill="#ffffff" d="M 3.417969 396.355469 C 2.199219 396.601562 1.40625 397.824219 1.675781 399.042969 C 1.925781 400.265625 3.148438 401.058594 4.367188 400.785156 C 4.753906 400.695312 43.394531 392.734375 62.207031 407.367188 C 71.34375 414.464844 85.746094 418.511719 100.214844 418.511719 C 104.988281 418.511719 109.757812 418.082031 114.371094 417.15625 C 128.617188 414.328125 139.582031 407.296875 145.257812 397.371094 C 150.230469 388.621094 151 379.328125 147.453125 370.464844 C 141.480469 355.5625 124.660156 344.640625 110.640625 340.4375 C 86.199219 333.109375 56.667969 322.078125 45.023438 301.703125 C 31.863281 278.6875 4.933594 279.523438 3.804688 279.566406 C 2.558594 279.613281 1.585938 280.675781 1.632812 281.917969 C 1.675781 283.164062 2.761719 284.136719 3.984375 284.089844 C 4.253906 284.089844 29.332031 283.34375 41.089844 303.941406 C 53.523438 325.695312 84.074219 337.179688 109.328125 344.753906 C 122.308594 348.644531 137.839844 358.636719 143.246094 372.136719 C 146.296875 379.78125 145.640625 387.511719 141.324219 395.109375 C 136.328125 403.882812 126.445312 410.125 113.488281 412.703125 C 96.125 416.136719 76.179688 412.476562 64.988281 403.769531 C 44.503906 387.851562 5.09375 395.992188 3.417969 396.355469 Z M 3.417969 396.355469 " fill-opacity=".05" fill-rule="nonzero"/></g><path fill="#ffffff" d="M 51.195312 378.582031 C 59.605469 384.84375 68.3125 388.167969 75.933594 388.167969 C 78.148438 388.167969 80.273438 387.898438 82.285156 387.308594 C 87.507812 385.816406 91.398438 382.359375 93.273438 377.585938 C 94.019531 375.6875 94.449219 372.632812 92.257812 368.789062 C 86.3125 358.390625 64.648438 348.667969 52.914062 346.8125 C 33.832031 343.761719 30.800781 346.585938 28.402344 353.777344 L 28.3125 354.046875 C 25.667969 361.960938 30.054688 364.699219 38.035156 369.695312 C 41.519531 371.886719 45.859375 374.601562 51.195312 378.582031 Z M 32.585938 355.472656 L 32.675781 355.203125 C 33.71875 352.105469 34.394531 350.070312 40.589844 350.070312 C 43.257812 350.070312 46.96875 350.453125 52.191406 351.265625 C 64.21875 353.1875 83.644531 362.867188 88.324219 371.03125 C 89.386719 372.882812 89.632812 374.488281 89.070312 375.914062 C 87.710938 379.394531 84.929688 381.835938 81.042969 382.945312 C 73.625 385.070312 63.496094 382.0625 53.910156 374.917969 C 48.4375 370.847656 44.003906 368.066406 40.457031 365.828125 C 32.132812 360.671875 31.164062 359.746094 32.585938 355.472656 Z M 32.585938 355.472656 " fill-opacity=".05" fill-rule="nonzero"/><g clip-path="url(#72ee1af56a)"><path fill="#ffffff" d="M 1.65625 917.175781 C 1.453125 918.421875 2.289062 919.574219 3.53125 919.777344 C 9.160156 920.683594 15.0625 921.113281 21.214844 921.113281 C 64.535156 921.113281 119.390625 899.066406 172.03125 859.859375 C 235.160156 812.828125 285.695312 748.203125 310.679688 682.585938 C 330.082031 631.621094 333.425781 592.300781 320.628906 565.734375 C 307.46875 538.417969 280.292969 529.738281 262.316406 523.992188 C 258.175781 522.660156 254.582031 521.527344 251.6875 520.332031 C 240.066406 515.558594 218.179688 521.257812 192.832031 527.882812 C 156.496094 537.355469 115.296875 548.097656 92.914062 531.660156 C 53.523438 502.738281 5.542969 509.679688 3.53125 509.996094 C 2.289062 510.179688 1.453125 511.332031 1.632812 512.574219 C 1.8125 513.816406 2.988281 514.65625 4.210938 514.472656 C 4.683594 514.40625 52.394531 507.53125 90.246094 535.300781 C 114.347656 553.003906 156.652344 541.96875 193.960938 532.246094 C 217.5 526.117188 239.726562 520.308594 249.945312 524.511719 C 253.023438 525.78125 256.664062 526.933594 260.914062 528.289062 C 279.183594 534.125 304.234375 542.128906 316.535156 567.679688 C 328.769531 593.070312 325.378906 631.191406 306.429688 680.960938 C 281.738281 745.808594 231.769531 809.707031 169.316406 856.21875 C 110.1875 900.265625 48.460938 922.355469 4.234375 915.300781 C 3.011719 915.097656 1.859375 915.957031 1.65625 917.175781 Z M 1.65625 917.175781 " fill-opacity=".05" fill-rule="nonzero"/></g><g clip-path="url(#357626d651)"><path fill="#ffffff" d="M 9.183594 862.390625 C 7.941406 862.527344 7.058594 863.65625 7.195312 864.898438 C 7.332031 866.054688 8.300781 866.914062 9.433594 866.914062 C 9.523438 866.914062 9.613281 866.914062 9.683594 866.890625 C 145.777344 851.425781 204.183594 791.617188 229.210938 744.15625 C 257.160156 691.179688 251.28125 640.644531 240.992188 621.222656 C 221.503906 584.410156 161.945312 585.765625 118.441406 586.761719 C 108.652344 586.988281 99.402344 587.191406 91.648438 586.941406 C 50.3125 585.652344 5.09375 569.328125 4.640625 569.171875 C 3.464844 568.742188 2.175781 569.351562 1.746094 570.527344 C 1.316406 571.703125 1.925781 572.992188 3.101562 573.421875 C 3.554688 573.578125 49.453125 590.152344 91.511719 591.464844 C 99.378906 591.714844 108.695312 591.511719 118.554688 591.285156 C 160.859375 590.335938 218.835938 589 236.992188 623.347656 C 246.828125 641.933594 252.34375 690.613281 225.210938 742.054688 C 200.699219 788.519531 143.3125 847.128906 9.183594 862.390625 Z M 9.183594 862.390625 " fill-opacity=".05" fill-rule="nonzero"/></g><g clip-path="url(#e90f920d4c)"><path fill="#ffffff" d="M 3.824219 624.542969 C 4.730469 624.566406 95.21875 627.394531 138.722656 646.839844 C 143.765625 649.101562 148.445312 651.042969 152.945312 652.945312 C 187.765625 667.550781 200.789062 673.023438 179.308594 727.289062 C 164.25 765.320312 108.695312 786.347656 65.710938 792.816406 C 36.363281 797.226562 11.671875 795.078125 5.65625 787.570312 C 4.867188 786.597656 3.441406 786.441406 2.46875 787.207031 C 1.496094 788 1.339844 789.402344 2.105469 790.398438 C 6.945312 796.433594 19.902344 799.621094 37.5625 799.621094 C 46.175781 799.621094 55.921875 798.851562 66.367188 797.292969 C 110.550781 790.644531 167.734375 768.78125 183.492188 728.960938 C 206.601562 670.582031 189.257812 663.300781 154.6875 648.785156 C 150.1875 646.90625 145.550781 644.941406 140.554688 642.722656 C 96.238281 622.917969 7.691406 620.15625 3.9375 620.046875 C 2.671875 620 1.65625 620.996094 1.609375 622.238281 C 1.585938 623.460938 2.582031 624.5 3.824219 624.542969 Z M 3.824219 624.542969 " fill-opacity=".05" fill-rule="nonzero"/></g><path fill="#ffffff" d="M 60.105469 734.253906 C 62.183594 734.253906 64.175781 733.960938 65.960938 733.53125 C 79.550781 730.183594 91.691406 715.871094 92.167969 709.992188 C 93.320312 695.226562 76.316406 682.722656 59.902344 679.601562 C 54.316406 678.539062 42.898438 681.863281 36.90625 690.636719 C 32.949219 696.449219 30.121094 706.417969 39.257812 720.9375 C 45.8125 731.359375 53.523438 734.253906 60.105469 734.253906 Z M 40.660156 693.191406 C 44.84375 687.085938 52.757812 683.921875 57.527344 683.921875 C 58.09375 683.921875 58.613281 683.964844 59.066406 684.058594 C 71.703125 686.453125 88.664062 696.695312 87.667969 709.652344 C 87.417969 712.976562 77.335938 726.089844 64.898438 729.144531 C 56.214844 731.292969 48.890625 727.71875 43.125 718.539062 C 36.90625 708.679688 36.070312 699.90625 40.660156 693.191406 Z M 40.660156 693.191406 " fill-opacity=".05" fill-rule="nonzero"/><path fill="#ffffff" d="M 279.863281 396.828125 C 256.324219 416.566406 245.378906 440.039062 249.8125 461.226562 C 253.949219 480.988281 271.132812 496.679688 296.976562 504.253906 C 323.90625 512.167969 359.046875 505 396.242188 497.425781 C 433.007812 489.941406 471.015625 482.183594 499.550781 490.574219 C 502.015625 491.296875 504.75 492.132812 507.734375 493.039062 C 533.535156 500.839844 580.386719 515.015625 630.128906 515.015625 C 662.214844 515.015625 695.519531 509.113281 725.1875 491.816406 C 768.960938 466.265625 798.71875 419.597656 813.640625 353.097656 C 815.5625 344.527344 817.824219 335.371094 820.242188 325.671875 C 831.253906 281.242188 842.652344 235.296875 827.230469 221.910156 C 807.378906 204.679688 745.039062 177.726562 679.152344 204.5 C 666.105469 209.789062 652.378906 215.960938 639.105469 221.910156 C 584.457031 246.417969 527.925781 271.765625 495.34375 250.128906 L 493.605469 248.976562 C 452.519531 221.683594 410.035156 193.464844 358.957031 247.097656 C 333.425781 273.890625 325.378906 301.296875 317.597656 327.796875 C 310.003906 353.371094 302.902344 377.519531 279.863281 396.828125 Z M 362.144531 250.21875 C 410.597656 199.34375 449.671875 225.277344 491.027344 252.75 L 492.765625 253.902344 C 527.429688 276.898438 585.089844 251.054688 640.871094 226.046875 C 654.121094 220.101562 667.824219 213.972656 680.777344 208.703125 C 744.722656 182.722656 805.003906 208.683594 824.199219 225.324219 C 837.542969 236.902344 825.488281 285.515625 815.789062 324.585938 C 813.371094 334.308594 811.109375 343.488281 809.164062 352.105469 C 794.535156 417.335938 765.503906 463.011719 722.835938 487.90625 C 648.898438 531.046875 550.832031 501.359375 508.980469 488.699219 C 505.996094 487.792969 503.238281 486.957031 500.773438 486.234375 C 491.523438 483.519531 481.417969 482.410156 470.722656 482.410156 C 447.207031 482.410156 420.933594 487.769531 395.269531 492.992188 C 358.636719 500.457031 324.042969 507.511719 298.199219 499.914062 C 274.003906 492.8125 257.972656 478.363281 254.199219 460.296875 C 250.128906 440.785156 260.527344 418.898438 282.734375 400.289062 C 306.835938 380.097656 314.117188 355.316406 321.828125 329.0625 C 329.492188 303.105469 337.382812 276.222656 362.144531 250.21875 Z M 362.144531 250.21875 " fill-opacity=".05" fill-rule="nonzero"/><path fill="#ffffff" d="M 392.195312 450.28125 C 415.300781 453.128906 450.9375 451.707031 488.675781 450.191406 C 530.390625 448.515625 573.558594 446.800781 606.75 450.28125 C 618.554688 451.523438 630.21875 452.453125 641.546875 452.453125 C 688.738281 452.453125 730.25 436.398438 753 360.355469 C 753.859375 357.484375 754.785156 354.523438 755.710938 351.539062 C 762.835938 328.722656 770.882812 302.855469 760.777344 283.796875 C 755.441406 273.710938 745.785156 266.703125 731.3125 262.339844 C 683.0625 247.777344 639.695312 272.378906 608.015625 290.351562 L 603.359375 292.976562 C 550.96875 322.527344 505.65625 314.773438 487.996094 302.359375 C 456.953125 280.539062 423.847656 263.015625 390.679688 308.601562 C 373.132812 332.703125 367.117188 347.265625 362.730469 357.890625 C 359.089844 366.710938 356.695312 372.523438 349.753906 379.101562 C 341.90625 386.539062 339.644531 400.648438 344.144531 414.261719 C 350.566406 433.910156 368.542969 447.363281 392.195312 450.28125 Z M 352.804688 382.378906 C 360.449219 375.144531 363.136719 368.632812 366.867188 359.609375 C 371.1875 349.1875 377.089844 334.898438 394.296875 311.246094 C 425.09375 268.964844 454.9375 284.65625 485.375 306.046875 C 499.980469 316.3125 520.667969 320.085938 545.226562 316.945312 C 565.597656 314.34375 587.597656 307.039062 605.574219 296.910156 L 610.230469 294.265625 C 642.925781 275.722656 683.605469 252.660156 729.980469 266.65625 C 743.253906 270.660156 752.003906 276.96875 756.773438 285.921875 C 766 303.308594 758.242188 328.226562 751.394531 350.203125 C 750.464844 353.210938 749.539062 356.175781 748.65625 359.066406 C 721.457031 450.054688 666.21875 452 607.226562 445.78125 C 592.890625 444.265625 576.746094 443.722656 559.695312 443.722656 C 536.902344 443.722656 512.460938 444.695312 488.492188 445.667969 C 450.960938 447.160156 415.503906 448.585938 392.757812 445.804688 C 370.871094 443.113281 354.296875 430.8125 348.394531 412.859375 C 344.4375 400.875 346.226562 388.621094 352.804688 382.378906 Z M 352.804688 382.378906 " fill-opacity=".05" fill-rule="nonzero"/><path fill="#ffffff" d="M 521.527344 426.222656 C 539.640625 426.222656 559.242188 425.296875 579.4375 423.375 C 629.429688 418.582031 661.964844 405.871094 676.1875 385.589844 C 683.71875 374.851562 685.707031 362.371094 682.113281 348.484375 C 679.785156 339.488281 675.734375 333.5625 669.746094 330.351562 C 657.558594 323.839844 640.011719 330.011719 619.683594 337.15625 C 611 340.210938 602 343.375 592.933594 345.683594 C 575.570312 350.113281 556.890625 349.253906 531.046875 348.054688 C 513.707031 347.265625 494.035156 346.359375 469.792969 346.789062 C 445.125 347.242188 429.027344 354.230469 421.925781 367.570312 C 414.464844 381.589844 419.6875 398.953125 425.046875 407.183594 C 432.824219 419.191406 471.46875 426.222656 521.527344 426.222656 Z M 425.953125 369.695312 C 432.125 358.074219 447.34375 351.71875 469.90625 351.3125 C 474.316406 351.222656 478.589844 351.199219 482.726562 351.199219 C 501.109375 351.199219 516.78125 351.921875 530.890625 352.578125 C 557.117188 353.800781 576.066406 354.660156 594.085938 350.070312 C 603.335938 347.71875 612.425781 344.507812 621.199219 341.429688 C 640.507812 334.648438 657.171875 328.792969 667.617188 334.355469 C 672.433594 336.933594 675.757812 341.929688 677.75 349.617188 C 680.980469 362.164062 679.21875 373.402344 672.480469 382.992188 C 659.253906 401.871094 626.917969 414.261719 578.984375 418.851562 C 499.550781 426.449219 437.234375 417.699219 428.847656 404.742188 C 424.121094 397.394531 419.417969 381.996094 425.953125 369.695312 Z M 425.953125 369.695312 " fill-opacity=".05" fill-rule="nonzero"/><path fill="#ffffff" d="M 542.828125 400.808594 L 545.089844 401.058594 C 552.167969 401.847656 561.617188 402.910156 571.523438 402.910156 C 587.054688 402.910156 603.71875 400.3125 614.144531 390.023438 C 619.003906 385.207031 620.585938 381.046875 618.824219 377.65625 C 613.421875 367.34375 579.753906 373.472656 579.390625 373.539062 C 569.984375 375.28125 563.742188 374.488281 557.707031 373.742188 C 551.332031 372.929688 544.75 372.113281 534.980469 374.308594 C 523.765625 376.839844 522.90625 383.148438 523.042969 385.726562 C 523.472656 393.007812 532.15625 399.632812 542.828125 400.808594 Z M 535.976562 378.71875 C 540.273438 377.746094 543.867188 377.40625 547.125 377.40625 C 550.695312 377.40625 553.863281 377.8125 557.117188 378.21875 C 563.496094 379.035156 570.097656 379.871094 580.203125 377.972656 C 594.675781 375.28125 612.5625 375.460938 614.800781 379.734375 C 615.523438 381.089844 614.121094 383.667969 610.957031 386.789062 C 595.445312 402.140625 562.996094 398.5 545.585938 396.558594 L 543.324219 396.308594 C 534.214844 395.3125 527.835938 389.886719 527.566406 385.457031 C 527.40625 382.425781 530.460938 379.960938 535.976562 378.71875 Z M 535.976562 378.71875 " fill-opacity=".05" fill-rule="nonzero"/><path fill="#ffffff" d="M 882.875 1080.066406 C 852.394531 1078.753906 820.898438 1077.398438 794.171875 1069.53125 C 758.765625 1059.128906 743.050781 1048.320312 733.644531 1041.855469 C 723.378906 1034.800781 719.125 1031.882812 705.832031 1040.160156 C 681.296875 1055.421875 687.628906 1119.703125 687.902344 1122.441406 C 688.015625 1123.59375 689.007812 1124.476562 690.140625 1124.476562 C 690.207031 1124.476562 690.296875 1124.476562 690.367188 1124.453125 C 691.609375 1124.316406 692.511719 1123.210938 692.378906 1121.964844 C 692.308594 1121.332031 686.023438 1057.796875 708.183594 1044.003906 C 718.96875 1037.285156 721.296875 1038.890625 731.066406 1045.585938 C 740.699219 1052.1875 756.796875 1063.246094 792.882812 1073.871094 C 820.128906 1081.875 851.921875 1083.253906 882.671875 1084.589844 C 933.34375 1086.78125 981.210938 1088.839844 994.824219 1121.511719 C 995.296875 1122.667969 996.632812 1123.210938 997.785156 1122.734375 C 998.9375 1122.257812 999.480469 1120.925781 999.007812 1119.773438 C 984.285156 1084.453125 935.015625 1082.328125 882.875 1080.066406 Z M 882.875 1080.066406 " fill-opacity=".05" fill-rule="nonzero"/><path fill="#ffffff" d="M 794.964844 1103.765625 C 784.222656 1103.765625 776.738281 1106.226562 772.691406 1111.089844 C 768.824219 1115.769531 769.730469 1120.859375 769.777344 1121.082031 C 769.980469 1122.167969 770.929688 1122.914062 771.992188 1122.914062 C 772.128906 1122.914062 772.261719 1122.894531 772.421875 1122.871094 C 773.640625 1122.644531 774.457031 1121.445312 774.230469 1120.222656 C 774.230469 1120.203125 773.710938 1116.96875 776.195312 1113.960938 C 779.292969 1110.230469 785.785156 1108.261719 794.988281 1108.261719 C 822.414062 1108.261719 876.183594 1115.09375 885.046875 1122.394531 C 886.019531 1123.1875 887.445312 1123.050781 888.234375 1122.078125 C 889.027344 1121.105469 888.890625 1119.683594 887.917969 1118.890625 C 877.246094 1110.164062 820.46875 1103.765625 794.964844 1103.765625 Z M 794.964844 1103.765625 " fill-opacity=".05" fill-rule="nonzero"/><g clip-path="url(#06b0f9b1bb)"><path fill="#ffffff" d="M 289.539062 963.550781 C 273.347656 928.460938 258.066406 910.417969 241.492188 906.777344 C 222.769531 902.660156 205.0625 917.765625 186.34375 933.75 C 173.882812 944.378906 160.972656 955.390625 146.410156 962.488281 C 116.65625 976.984375 91.082031 978.679688 66.34375 980.328125 C 44.886719 981.753906 24.628906 983.109375 3.011719 992.449219 C 1.859375 992.945312 1.339844 994.28125 1.835938 995.410156 C 2.332031 996.566406 3.667969 997.085938 4.796875 996.585938 C 25.714844 987.542969 45.589844 986.230469 66.640625 984.808594 C 91.804688 983.132812 117.851562 981.390625 148.378906 966.515625 C 163.460938 959.164062 176.574219 947.972656 189.257812 937.164062 C 207.890625 921.269531 223.988281 907.542969 240.519531 911.164062 C 255.394531 914.417969 270.09375 932.167969 285.445312 965.429688 C 298.945312 994.664062 310.183594 1016.03125 318.390625 1031.613281 C 342.109375 1076.675781 344.597656 1081.378906 324.042969 1121.152344 C 323.476562 1122.257812 323.90625 1123.617188 325.015625 1124.203125 C 325.355469 1124.386719 325.695312 1124.453125 326.054688 1124.453125 C 326.871094 1124.453125 327.660156 1124 328.070312 1123.230469 C 349.707031 1081.378906 346.066406 1074.460938 322.394531 1029.507812 C 314.207031 1013.976562 302.992188 992.675781 289.539062 963.550781 Z M 289.539062 963.550781 " fill-opacity=".05" fill-rule="nonzero"/></g><g clip-path="url(#78270b565d)"><path fill="#ffffff" d="M 210.0625 1042.035156 C 204.65625 1039.230469 197.894531 1042.035156 189.304688 1045.585938 C 179.195312 1049.769531 165.382812 1055.488281 147.496094 1054.675781 C 104.785156 1052.777344 7.488281 1076.609375 3.351562 1077.625 C 2.128906 1077.917969 1.40625 1079.140625 1.699219 1080.359375 C 1.996094 1081.582031 3.238281 1082.328125 4.4375 1082.011719 C 5.429688 1081.761719 105.214844 1057.296875 147.292969 1059.175781 C 166.171875 1060.011719 180.53125 1054.085938 191.023438 1049.746094 C 198.53125 1046.648438 204.453125 1044.207031 207.980469 1046.039062 C 210.492188 1047.347656 212.390625 1051.058594 213.816406 1057.410156 C 220.6875 1088.117188 204.183594 1119.253906 204.023438 1119.570312 C 203.4375 1120.675781 203.84375 1122.035156 204.949219 1122.621094 C 205.289062 1122.800781 205.652344 1122.890625 206.015625 1122.890625 C 206.828125 1122.890625 207.597656 1122.464844 208.003906 1121.71875 C 208.726562 1120.382812 225.480469 1088.816406 218.222656 1056.417969 C 216.460938 1048.59375 213.882812 1044.023438 210.0625 1042.035156 Z M 210.0625 1042.035156 " fill-opacity=".05" fill-rule="nonzero"/></g><g clip-path="url(#64f10a7453)"><path fill="#ffffff" d="M 1094.265625 924.796875 C 1084.882812 927.441406 1078.167969 937.753906 1074.347656 955.433594 C 1071.089844 970.515625 1065.574219 984.808594 1060.261719 998.597656 C 1046.917969 1033.21875 1033.125 1068.988281 1052.253906 1121.421875 C 1052.59375 1122.351562 1053.453125 1122.914062 1054.382812 1122.914062 C 1054.628906 1122.914062 1054.902344 1122.871094 1055.148438 1122.78125 C 1056.324219 1122.351562 1056.9375 1121.0625 1056.507812 1119.886719 C 1037.964844 1069.054688 1050.855469 1035.636719 1064.488281 1000.25 C 1069.871094 986.277344 1075.433594 971.851562 1078.777344 956.40625 C 1082.214844 940.511719 1087.84375 931.332031 1095.488281 929.160156 C 1106.65625 925.996094 1119.117188 938.769531 1119.253906 938.90625 C 1120.113281 939.8125 1121.558594 939.832031 1122.441406 938.972656 C 1123.34375 938.113281 1123.367188 936.691406 1122.507812 935.785156 C 1121.921875 935.152344 1108.058594 920.90625 1094.265625 924.796875 Z M 1094.265625 924.796875 " fill-opacity=".05" fill-rule="nonzero"/></g><g clip-path="url(#c87704bd9b)"><path fill="#ffffff" d="M 1120.382812 998.035156 C 1119.523438 998.214844 1111.882812 1000.386719 1105.550781 1016.890625 C 1097.363281 1038.238281 1095.035156 1073.214844 1098.632812 1120.835938 C 1098.722656 1122.011719 1099.714844 1122.914062 1100.890625 1122.914062 C 1100.9375 1122.914062 1101.003906 1122.914062 1101.074219 1122.914062 C 1102.316406 1122.824219 1103.242188 1121.738281 1103.152344 1120.496094 C 1094.96875 1011.644531 1120.949219 1002.601562 1121.445312 1002.445312 C 1122.644531 1002.148438 1123.367188 1000.949219 1123.097656 999.753906 C 1122.800781 998.53125 1121.605469 997.761719 1120.382812 998.035156 Z M 1120.382812 998.035156 " fill-opacity=".05" fill-rule="nonzero"/></g></svg>