<svg xmlns="http://www.w3.org/2000/svg" xmlns:xlink="http://www.w3.org/1999/xlink" width="500" zoomAndPan="magnify" viewBox="0 0 375 187.499995" height="250" preserveAspectRatio="xMidYMid meet" version="1.0"><defs><clipPath id="41c4544915"><path d="M 76 17.53125 L 298.894531 17.53125 L 298.894531 169.378906 L 76 169.378906 Z M 76 17.53125 " clip-rule="nonzero"/></clipPath></defs><g clip-path="url(#41c4544915)"><path fill="#ffffff" d="M 295.820312 26.277344 C 292.644531 20.800781 286.96875 17.53125 280.636719 17.53125 L 233.203125 17.53125 C 226.679688 17.53125 220.617188 21.054688 217.378906 26.714844 L 175.742188 99.585938 L 157.289062 67.292969 C 153.597656 60.828125 146.945312 56.96875 139.503906 56.96875 C 132.058594 56.96875 125.410156 60.828125 121.714844 67.292969 L 79.34375 141.445312 C 75.996094 147.304688 76.019531 154.296875 79.40625 160.132812 C 82.796875 165.972656 88.851562 169.460938 95.605469 169.460938 L 141.585938 169.460938 C 147.980469 169.460938 153.921875 166.011719 157.09375 160.457031 L 175.742188 127.828125 L 193.308594 158.570312 C 197.144531 165.289062 204.335938 169.460938 212.070312 169.460938 L 212.164062 169.460938 C 219.519531 169.460938 226.351562 165.496094 229.996094 159.113281 L 295.878906 43.796875 C 299.015625 38.300781 299 31.75 295.820312 26.277344 Z M 283.113281 37.90625 L 217.148438 153.359375 C 216.265625 154.90625 214.605469 155.871094 212.820312 155.871094 L 210.8125 155.871094 C 209.015625 155.871094 207.34375 154.902344 206.453125 153.339844 L 183.8125 113.710938 L 230.992188 31.125 L 279.175781 31.125 C 280.808594 31.125 282.277344 31.972656 283.097656 33.386719 C 283.921875 34.792969 283.925781 36.484375 283.113281 37.90625 Z M 167.671875 113.707031 L 143.582031 155.867188 L 96.726562 155.867188 C 94.742188 155.867188 92.960938 154.839844 91.960938 153.125 C 90.964844 151.410156 90.957031 149.355469 91.941406 147.632812 L 134.339844 73.429688 C 135.410156 71.554688 137.339844 70.433594 139.503906 70.433594 C 141.664062 70.433594 143.59375 71.554688 144.667969 73.429688 Z M 167.671875 113.707031 " fill-opacity="1" fill-rule="nonzero"/></g></svg>