<svg xmlns="http://www.w3.org/2000/svg" xmlns:xlink="http://www.w3.org/1999/xlink" width="500" zoomAndPan="magnify" viewBox="0 0 375 374.999991" height="500" preserveAspectRatio="xMidYMid meet" version="1.0"><defs><clipPath id="cc783af2c4"><path d="M 54 95.867188 L 322 95.867188 L 322 278.867188 L 54 278.867188 Z M 54 95.867188 " clip-rule="nonzero"/></clipPath></defs><g clip-path="url(#cc783af2c4)"><path fill="#ffffff" d="M 318.152344 106.414062 C 314.320312 99.808594 307.472656 95.867188 299.839844 95.867188 L 242.621094 95.867188 C 234.753906 95.867188 227.441406 100.117188 223.535156 106.945312 L 173.3125 194.84375 L 151.058594 155.886719 C 146.601562 148.089844 138.582031 143.433594 129.601562 143.433594 C 120.625 143.433594 112.601562 148.089844 108.148438 155.886719 L 57.039062 245.332031 C 53 252.402344 53.027344 260.832031 57.113281 267.875 C 61.203125 274.917969 68.507812 279.125 76.65625 279.125 L 132.113281 279.125 C 139.824219 279.125 146.996094 274.960938 150.820312 268.265625 L 173.3125 228.90625 L 194.503906 265.988281 C 199.128906 274.09375 207.800781 279.125 217.132812 279.125 L 217.246094 279.125 C 226.117188 279.125 234.355469 274.339844 238.753906 266.640625 L 318.222656 127.546875 C 322.007812 120.917969 321.984375 113.019531 318.152344 106.414062 Z M 302.824219 120.441406 L 223.257812 259.703125 C 222.191406 261.570312 220.191406 262.734375 218.035156 262.734375 L 215.617188 262.734375 C 213.449219 262.734375 211.433594 261.5625 210.355469 259.679688 L 183.046875 211.878906 L 239.957031 112.261719 L 298.074219 112.261719 C 300.046875 112.261719 301.816406 113.285156 302.808594 114.988281 C 303.796875 116.6875 303.804688 118.730469 302.824219 120.441406 Z M 163.578125 211.871094 L 134.523438 262.726562 L 78.003906 262.726562 C 75.613281 262.726562 73.460938 261.488281 72.257812 259.421875 C 71.054688 257.351562 71.046875 254.875 72.234375 252.792969 L 123.371094 163.292969 C 124.664062 161.027344 126.992188 159.679688 129.601562 159.679688 C 132.207031 159.679688 134.535156 161.027344 135.832031 163.292969 Z M 163.578125 211.871094 " fill-opacity="1" fill-rule="nonzero"/></g></svg>